<svg xmlns="http://www.w3.org/2000/svg" width="1440" height="1000" viewBox="0 0 1440 1000"><defs><linearGradient id="g1" x1="0" y1="0" x2="1" y2="1"><stop offset="0" stop-color="#9BD66B"/><stop offset="1" stop-color="#8CCB5E"/></linearGradient><linearGradient id="g2" x1="0" y1="0" x2="1" y2="1"><stop offset="0" stop-color="#9BD66B"/><stop offset="1" stop-color="#8CCB5E"/></linearGradient><linearGradient id="g3" x1="0" y1="0" x2="0" y2="1"><stop offset="0" stop-color="#3A3550"/><stop offset="1" stop-color="#211E30"/></linearGradient></defs><polygon points="476.9,254.4 663.9,362.4 663.9,330.0 476.9,222.0" fill="#C8553D" /><polygon points="757.5,308.4 663.9,362.4 663.9,330.0 757.5,276.0" fill="#A04431" /><polygon points="570.4,168.0 757.5,276.0 663.9,330.0 476.9,222.0" fill="#D9694F" /><line x1="476.9" y1="238.2" x2="663.9" y2="346.2" stroke="#8E3A2A" stroke-width="2"/><line x1="757.5" y1="292.2" x2="663.9" y2="346.2" stroke="#7A3124" stroke-width="2"/><line x1="500.3" y1="251.7" x2="500.3" y2="235.5" stroke="#8E3A2A" stroke-width="2"/><line x1="523.6" y1="281.4" x2="523.6" y2="265.2" stroke="#8E3A2A" stroke-width="2"/><line x1="547.0" y1="278.7" x2="547.0" y2="262.5" stroke="#8E3A2A" stroke-width="2"/><line x1="570.4" y1="308.4" x2="570.4" y2="292.2" stroke="#8E3A2A" stroke-width="2"/><line x1="593.8" y1="305.7" x2="593.8" y2="289.5" stroke="#8E3A2A" stroke-width="2"/><line x1="617.2" y1="335.4" x2="617.2" y2="319.2" stroke="#8E3A2A" stroke-width="2"/><line x1="640.6" y1="332.7" x2="640.6" y2="316.5" stroke="#8E3A2A" stroke-width="2"/><line x1="734.1" y1="305.7" x2="734.1" y2="289.5" stroke="#7A3124" stroke-width="2"/><line x1="710.7" y1="335.4" x2="710.7" y2="319.2" stroke="#7A3124" stroke-width="2"/><line x1="687.3" y1="332.7" x2="687.3" y2="316.5" stroke="#7A3124" stroke-width="2"/><polygon points="612.5,267.9 659.3,294.9 659.3,240.9 612.5,213.9" fill="#E6B43E" /><polygon points="706.0,267.9 659.3,294.9 659.3,240.9 706.0,213.9" fill="#C29834" /><polygon points="659.3,186.9 706.0,213.9 659.3,240.9 612.5,213.9" fill="#FFC845" /><path d="M635.9 240.4 Q639.8 250.5 649.9 254.4 Q639.8 258.3 635.9 268.4 Q632.0 258.3 621.8 254.4 Q632.0 250.5 635.9 240.4Z" fill="#FFFFFF"/><path d="M682.6 242.5 Q686.0 251.1 694.5 254.4 Q686.0 257.7 682.6 266.3 Q679.3 257.7 670.8 254.4 Q679.3 251.1 682.6 242.5Z" fill="#FFF4D6"/><circle cx="618.1" cy="264.7" r="2.6" fill="#FFFFFF" fill-opacity="0.85"/><circle cx="653.7" cy="285.2" r="2.6" fill="#FFFFFF" fill-opacity="0.85"/><circle cx="618.1" cy="223.6" r="2.6" fill="#FFFFFF" fill-opacity="0.85"/><circle cx="653.7" cy="244.1" r="2.6" fill="#FFFFFF" fill-opacity="0.85"/><polygon points="158.9,596.4 907.1,1028.4 907.1,995.3 158.9,563.3" fill="#F6CF78" /><polygon points="1281.2,812.4 907.1,1028.4 907.1,995.3 1281.2,779.3" fill="#D4B267" /><polygon points="158.9,629.5 907.1,1061.5 907.1,1028.4 158.9,596.4" fill="#EDBC5E" /><polygon points="1281.2,845.5 907.1,1061.5 907.1,1028.4 1281.2,812.4" fill="#CCA251" /><polygon points="158.9,662.6 907.1,1094.6 907.1,1061.5 158.9,629.5" fill="#E2A94C" /><polygon points="1281.2,878.6 907.1,1094.6 907.1,1061.5 1281.2,845.5" fill="#C29141" /><polygon points="158.9,695.8 907.1,1127.8 907.1,1094.6 158.9,662.6" fill="#D69740" /><polygon points="1281.2,911.8 907.1,1127.8 907.1,1094.6 1281.2,878.6" fill="#B88237" /><polygon points="158.9,728.9 907.1,1160.9 907.1,1127.8 158.9,695.8" fill="#C98636" /><polygon points="1281.2,944.9 907.1,1160.9 907.1,1127.8 1281.2,911.8" fill="#AD732E" /><polygon points="158.9,762.0 907.1,1194.0 907.1,1160.9 158.9,728.9" fill="#BC7630" /><polygon points="1281.2,978.0 907.1,1194.0 907.1,1160.9 1281.2,944.9" fill="#A26529" /><polygon points="158.9,563.3 907.1,995.3 907.1,978.0 158.9,546.0" fill="#6DB33F" /><polygon points="1281.2,779.3 907.1,995.3 907.1,978.0 1281.2,762.0" fill="#5D9836" /><polygon points="158.9,563.3 182.3,576.8 170.6,578.7" fill="#6DB33F" /><polygon points="182.3,576.8 205.6,590.3 194.0,592.2" fill="#6DB33F" /><polygon points="205.6,590.3 229.0,603.8 217.3,605.7" fill="#6DB33F" /><polygon points="229.0,603.8 252.4,617.3 240.7,619.2" fill="#6DB33F" /><polygon points="252.4,617.3 275.8,630.8 264.1,632.7" fill="#6DB33F" /><polygon points="275.8,630.8 299.2,644.3 287.5,646.2" fill="#6DB33F" /><polygon points="299.2,644.3 322.6,657.8 310.9,659.7" fill="#6DB33F" /><polygon points="322.6,657.8 345.9,671.3 334.2,673.2" fill="#6DB33F" /><polygon points="345.9,671.3 369.3,684.8 357.6,686.7" fill="#6DB33F" /><polygon points="369.3,684.8 392.7,698.3 381.0,700.2" fill="#6DB33F" /><polygon points="392.7,698.3 416.1,711.8 404.4,713.7" fill="#6DB33F" /><polygon points="416.1,711.8 439.5,725.3 427.8,727.2" fill="#6DB33F" /><polygon points="439.5,725.3 462.9,738.8 451.2,740.7" fill="#6DB33F" /><polygon points="462.9,738.8 486.2,752.3 474.5,754.2" fill="#6DB33F" /><polygon points="486.2,752.3 509.6,765.8 497.9,767.7" fill="#6DB33F" /><polygon points="509.6,765.8 533.0,779.3 521.3,781.2" fill="#6DB33F" /><polygon points="533.0,779.3 556.4,792.8 544.7,794.7" fill="#6DB33F" /><polygon points="556.4,792.8 579.8,806.3 568.1,808.2" fill="#6DB33F" /><polygon points="579.8,806.3 603.1,819.8 591.5,821.7" fill="#6DB33F" /><polygon points="603.1,819.8 626.5,833.3 614.8,835.2" fill="#6DB33F" /><polygon points="626.5,833.3 649.9,846.8 638.2,848.7" fill="#6DB33F" /><polygon points="649.9,846.8 673.3,860.3 661.6,862.2" fill="#6DB33F" /><polygon points="673.3,860.3 696.7,873.8 685.0,875.7" fill="#6DB33F" /><polygon points="696.7,873.8 720.1,887.3 708.4,889.2" fill="#6DB33F" /><polygon points="720.1,887.3 743.4,900.8 731.8,902.7" fill="#6DB33F" /><polygon points="743.4,900.8 766.8,914.3 755.1,916.2" fill="#6DB33F" /><polygon points="766.8,914.3 790.2,927.8 778.5,929.7" fill="#6DB33F" /><polygon points="790.2,927.8 813.6,941.3 801.9,943.2" fill="#6DB33F" /><polygon points="813.6,941.3 837.0,954.8 825.3,956.7" fill="#6DB33F" /><polygon points="837.0,954.8 860.4,968.3 848.7,970.2" fill="#6DB33F" /><polygon points="860.4,968.3 883.7,981.8 872.0,983.7" fill="#6DB33F" /><polygon points="883.7,981.8 907.1,995.3 895.4,997.2" fill="#6DB33F" /><polygon points="1281.2,779.3 1257.9,792.8 1269.6,794.7" fill="#5D9836" /><polygon points="1257.9,792.8 1234.5,806.3 1246.2,808.2" fill="#5D9836" /><polygon points="1234.5,806.3 1211.1,819.8 1222.8,821.7" fill="#5D9836" /><polygon points="1211.1,819.8 1187.7,833.3 1199.4,835.2" fill="#5D9836" /><polygon points="1187.7,833.3 1164.3,846.8 1176.0,848.7" fill="#5D9836" /><polygon points="1164.3,846.8 1140.9,860.3 1152.6,862.2" fill="#5D9836" /><polygon points="1140.9,860.3 1117.6,873.8 1129.3,875.7" fill="#5D9836" /><polygon points="1117.6,873.8 1094.2,887.3 1105.9,889.2" fill="#5D9836" /><polygon points="1094.2,887.3 1070.8,900.8 1082.5,902.7" fill="#5D9836" /><polygon points="1070.8,900.8 1047.4,914.3 1059.1,916.2" fill="#5D9836" /><polygon points="1047.4,914.3 1024.0,927.8 1035.7,929.7" fill="#5D9836" /><polygon points="1024.0,927.8 1000.7,941.3 1012.3,943.2" fill="#5D9836" /><polygon points="1000.7,941.3 977.3,954.8 989.0,956.7" fill="#5D9836" /><polygon points="977.3,954.8 953.9,968.3 965.6,970.2" fill="#5D9836" /><polygon points="953.9,968.3 930.5,981.8 942.2,983.7" fill="#5D9836" /><polygon points="930.5,981.8 907.1,995.3 918.8,997.2" fill="#5D9836" /><polygon points="533.0,330.0 1281.2,762.0 907.1,978.0 158.9,546.0" fill="url(#g1)" /><polygon points="570.4,383.5 757.5,491.5 663.9,545.5 476.9,437.5" fill="#2E4A1E" fill-opacity="0.08"/><ellipse cx="603.1" cy="575.2" rx="34" ry="14" fill="#2E4A1E" fill-opacity="0.13"/><ellipse cx="663.9" cy="610.3" rx="34" ry="14" fill="#2E4A1E" fill-opacity="0.13"/><polygon points="792.1,537.9 808.9,547.6 808.9,493.6 792.1,483.9" fill="#7A4E33" /><polygon points="825.8,537.9 808.9,547.6 808.9,493.6 825.8,483.9" fill="#643F29" /><polygon points="808.9,474.2 825.8,483.9 808.9,493.6 792.1,483.9" fill="#8A5A3B" /><polygon points="734.1,489.3 808.9,532.5 808.9,478.5 734.1,435.3" fill="#4FA044" /><polygon points="883.7,489.3 808.9,532.5 808.9,478.5 883.7,435.3" fill="#418338" /><polygon points="808.9,392.1 883.7,435.3 808.9,478.5 734.1,435.3" fill="#5DB24B" /><polygon points="757.5,435.3 808.9,465.0 808.9,427.2 757.5,397.5" fill="#5DB24B" /><polygon points="860.4,435.3 808.9,465.0 808.9,427.2 860.4,397.5" fill="#4C923D" /><polygon points="808.9,367.8 860.4,397.5 808.9,427.2 757.5,397.5" fill="#72C257" /><polygon points="766.8,641.4 1094.2,830.4 1094.2,822.5 766.8,633.5" fill="#F6CF78" /><polygon points="1281.2,722.4 1094.2,830.4 1094.2,822.5 1281.2,714.5" fill="#D4B267" /><polygon points="766.8,649.3 1094.2,838.3 1094.2,830.4 766.8,641.4" fill="#EDBC5E" /><polygon points="1281.2,730.3 1094.2,838.3 1094.2,830.4 1281.2,722.4" fill="#CCA251" /><polygon points="766.8,657.2 1094.2,846.2 1094.2,838.3 766.8,649.3" fill="#E2A94C" /><polygon points="1281.2,738.2 1094.2,846.2 1094.2,838.3 1281.2,730.3" fill="#C29141" /><polygon points="766.8,665.2 1094.2,854.2 1094.2,846.2 766.8,657.2" fill="#D69740" /><polygon points="1281.2,746.2 1094.2,854.2 1094.2,846.2 1281.2,738.2" fill="#B88237" /><polygon points="766.8,673.1 1094.2,862.1 1094.2,854.2 766.8,665.2" fill="#C98636" /><polygon points="1281.2,754.1 1094.2,862.1 1094.2,854.2 1281.2,746.2" fill="#AD732E" /><polygon points="766.8,681.0 1094.2,870.0 1094.2,862.1 766.8,673.1" fill="#BC7630" /><polygon points="1281.2,762.0 1094.2,870.0 1094.2,862.1 1281.2,754.1" fill="#A26529" /><polygon points="766.8,633.5 1094.2,822.5 1094.2,805.2 766.8,616.2" fill="#6DB33F" /><polygon points="1281.2,714.5 1094.2,822.5 1094.2,805.2 1281.2,697.2" fill="#5D9836" /><polygon points="766.8,633.5 790.2,647.0 778.5,648.9" fill="#6DB33F" /><polygon points="790.2,647.0 813.6,660.5 801.9,662.4" fill="#6DB33F" /><polygon points="813.6,660.5 837.0,674.0 825.3,675.9" fill="#6DB33F" /><polygon points="837.0,674.0 860.4,687.5 848.7,689.4" fill="#6DB33F" /><polygon points="860.4,687.5 883.7,701.0 872.0,702.9" fill="#6DB33F" /><polygon points="883.7,701.0 907.1,714.5 895.4,716.4" fill="#6DB33F" /><polygon points="907.1,714.5 930.5,728.0 918.8,729.9" fill="#6DB33F" /><polygon points="930.5,728.0 953.9,741.5 942.2,743.4" fill="#6DB33F" /><polygon points="953.9,741.5 977.3,755.0 965.6,756.9" fill="#6DB33F" /><polygon points="977.3,755.0 1000.7,768.5 989.0,770.4" fill="#6DB33F" /><polygon points="1000.7,768.5 1024.0,782.0 1012.3,783.9" fill="#6DB33F" /><polygon points="1024.0,782.0 1047.4,795.5 1035.7,797.4" fill="#6DB33F" /><polygon points="1047.4,795.5 1070.8,809.0 1059.1,810.9" fill="#6DB33F" /><polygon points="1070.8,809.0 1094.2,822.5 1082.5,824.4" fill="#6DB33F" /><polygon points="1281.2,714.5 1257.9,728.0 1269.6,729.9" fill="#5D9836" /><polygon points="1257.9,728.0 1234.5,741.5 1246.2,743.4" fill="#5D9836" /><polygon points="1234.5,741.5 1211.1,755.0 1222.8,756.9" fill="#5D9836" /><polygon points="1211.1,755.0 1187.7,768.5 1199.4,770.4" fill="#5D9836" /><polygon points="1187.7,768.5 1164.3,782.0 1176.0,783.9" fill="#5D9836" /><polygon points="1164.3,782.0 1140.9,795.5 1152.6,797.4" fill="#5D9836" /><polygon points="1140.9,795.5 1117.6,809.0 1129.3,810.9" fill="#5D9836" /><polygon points="1117.6,809.0 1094.2,822.5 1105.9,824.4" fill="#5D9836" /><polygon points="953.9,508.2 1281.2,697.2 1094.2,805.2 766.8,616.2" fill="url(#g2)" /><polygon points="897.8,594.6 1131.6,729.6 1131.6,694.5 897.8,559.5" fill="#C5477E" /><polygon points="1215.8,681.0 1131.6,729.6 1131.6,694.5 1215.8,645.9" fill="#A33A69" /><polygon points="981.9,510.9 1215.8,645.9 1131.6,694.5 897.8,559.5" fill="#F0569A" /><polygon points="925.8,575.7 1094.2,672.9 1094.2,637.8 925.8,540.6" fill="#4B9794" /><polygon points="1178.4,624.3 1094.2,672.9 1094.2,637.8 1178.4,589.2" fill="#3E7D7A" /><polygon points="1010.0,492.0 1178.4,589.2 1094.2,637.8 925.8,540.6" fill="#5BB8B4" /><polygon points="958.6,554.1 1061.4,613.5 1061.4,578.4 958.6,519.0" fill="#D1A439" /><polygon points="1136.3,570.3 1061.4,613.5 1061.4,578.4 1136.3,535.2" fill="#AD882F" /><polygon points="1033.4,475.8 1136.3,535.2 1061.4,578.4 958.6,519.0" fill="#FFC845" /><polygon points="1189.6,697.2 1206.4,706.9 1206.4,661.0 1189.6,651.3" fill="#7A4E33" /><polygon points="1223.3,697.2 1206.4,706.9 1206.4,661.0 1223.3,651.3" fill="#643F29" /><polygon points="1206.4,641.6 1223.3,651.3 1206.4,661.0 1189.6,651.3" fill="#8A5A3B" /><polygon points="1142.8,655.9 1206.4,692.6 1206.4,646.7 1142.8,610.0" fill="#4FA044" /><polygon points="1270.0,655.9 1206.4,692.6 1206.4,646.7 1270.0,610.0" fill="#418338" /><polygon points="1206.4,573.3 1270.0,610.0 1206.4,646.7 1142.8,610.0" fill="#5DB24B" /><polygon points="1162.7,610.0 1206.4,635.2 1206.4,603.1 1162.7,577.9" fill="#5DB24B" /><polygon points="1250.1,610.0 1206.4,635.2 1206.4,603.1 1250.1,577.9" fill="#4C923D" /><polygon points="1206.4,552.6 1250.1,577.9 1206.4,603.1 1162.7,577.9" fill="#72C257" /><polygon points="1066.1,745.8 1075.5,751.2 1075.5,529.8 1066.1,524.4" fill="#EEE8DC" /><polygon points="1084.8,745.8 1075.5,751.2 1075.5,529.8 1084.8,524.4" fill="#D9D2C4" /><polygon points="1075.5,519.0 1084.8,524.4 1075.5,529.8 1066.1,524.4" fill="#FFFFFF" /><circle cx="1075.5" cy="521.7" r="8" fill="#FFC845"/><polygon points="1080.2,535.2 1164.3,605.4 1080.2,583.8" fill="#F0569A" /><path d="M1104.2 563.8 Q1107.3 571.7 1115.2 574.8 Q1107.3 577.9 1104.2 585.8 Q1101.1 577.9 1093.2 574.8 Q1101.1 571.7 1104.2 563.8Z" fill="#FFFFFF"/><line x1="869.7" y1="721.5" x2="935.2" y2="759.3" stroke="#FFFFFF" stroke-width="7" stroke-linecap="round"/><line x1="869.7" y1="724.5" x2="935.2" y2="762.3" stroke="#D9D2C4" stroke-width="2"/><line x1="869.7" y1="706.9" x2="935.2" y2="744.7" stroke="#FFFFFF" stroke-width="7" stroke-linecap="round"/><line x1="869.7" y1="709.9" x2="935.2" y2="747.7" stroke="#D9D2C4" stroke-width="2"/><line x1="935.2" y1="759.3" x2="1000.7" y2="797.1" stroke="#FFFFFF" stroke-width="7" stroke-linecap="round"/><line x1="935.2" y1="762.3" x2="1000.7" y2="800.1" stroke="#D9D2C4" stroke-width="2"/><line x1="935.2" y1="744.7" x2="1000.7" y2="782.5" stroke="#FFFFFF" stroke-width="7" stroke-linecap="round"/><line x1="935.2" y1="747.7" x2="1000.7" y2="785.5" stroke="#D9D2C4" stroke-width="2"/><line x1="1000.7" y1="797.1" x2="1066.1" y2="834.9" stroke="#FFFFFF" stroke-width="7" stroke-linecap="round"/><line x1="1000.7" y1="800.1" x2="1066.1" y2="837.9" stroke="#D9D2C4" stroke-width="2"/><line x1="1000.7" y1="782.5" x2="1066.1" y2="820.3" stroke="#FFFFFF" stroke-width="7" stroke-linecap="round"/><line x1="1000.7" y1="785.5" x2="1066.1" y2="823.3" stroke="#D9D2C4" stroke-width="2"/><polygon points="861.3,740.4 869.7,745.3 869.7,702.1 861.3,697.2" fill="#EEE8DC" /><polygon points="878.1,740.4 869.7,745.3 869.7,702.1 878.1,697.2" fill="#D9D2C4" /><polygon points="869.7,692.3 878.1,697.2 869.7,702.1 861.3,697.2" fill="#FFFFFF" /><polygon points="926.8,778.2 935.2,783.1 935.2,739.9 926.8,735.0" fill="#EEE8DC" /><polygon points="943.6,778.2 935.2,783.1 935.2,739.9 943.6,735.0" fill="#D9D2C4" /><polygon points="935.2,730.1 943.6,735.0 935.2,739.9 926.8,735.0" fill="#FFFFFF" /><polygon points="992.2,816.0 1000.7,820.9 1000.7,777.7 992.2,772.8" fill="#EEE8DC" /><polygon points="1009.1,816.0 1000.7,820.9 1000.7,777.7 1009.1,772.8" fill="#D9D2C4" /><polygon points="1000.7,767.9 1009.1,772.8 1000.7,777.7 992.2,772.8" fill="#FFFFFF" /><polygon points="1057.7,853.8 1066.1,858.7 1066.1,815.5 1057.7,810.6" fill="#EEE8DC" /><polygon points="1074.5,853.8 1066.1,858.7 1066.1,815.5 1074.5,810.6" fill="#D9D2C4" /><polygon points="1066.1,805.7 1074.5,810.6 1066.1,815.5 1057.7,810.6" fill="#FFFFFF" /><polygon points="299.2,572.7 345.9,599.7 299.2,626.7 252.4,599.7" fill="#EFD9A0" /><polygon points="345.9,599.7 392.7,626.7 345.9,653.7 299.2,626.7" fill="#EFD9A0" /><polygon points="392.7,572.7 439.5,599.7 392.7,626.7 345.9,599.7" fill="#EFD9A0" /><polygon points="439.5,599.7 486.2,626.7 439.5,653.7 392.7,626.7" fill="#EFD9A0" /><polygon points="486.2,626.7 533.0,653.7 486.2,680.7 439.5,653.7" fill="#EFD9A0" /><polygon points="533.0,599.7 579.8,626.7 533.0,653.7 486.2,626.7" fill="#EFD9A0" /><polygon points="579.8,626.7 626.5,653.7 579.8,680.7 533.0,653.7" fill="#EFD9A0" /><polygon points="626.5,653.7 673.3,680.7 626.5,707.7 579.8,680.7" fill="#EFD9A0" /><polygon points="673.3,680.7 720.1,707.7 673.3,734.7 626.5,707.7" fill="#EFD9A0" /><polygon points="720.1,653.7 766.8,680.7 720.1,707.7 673.3,680.7" fill="#EFD9A0" /><polygon points="766.8,680.7 813.6,707.7 766.8,734.7 720.1,707.7" fill="#EFD9A0" /><polygon points="738.8,718.8 813.6,762.0 813.6,729.6 738.8,686.4" fill="#D9BC7C" /><polygon points="860.4,735.0 813.6,762.0 813.6,729.6 860.4,702.6" fill="#C4A566" /><polygon points="785.5,659.4 860.4,702.6 813.6,729.6 738.8,686.4" fill="#EFD9A0" /><polygon points="375.9,475.8 392.7,485.5 392.7,436.9 375.9,427.2" fill="#7A4E33" /><polygon points="409.5,475.8 392.7,485.5 392.7,436.9 409.5,427.2" fill="#643F29" /><polygon points="392.7,417.5 409.5,427.2 392.7,436.9 375.9,427.2" fill="#8A5A3B" /><polygon points="325.4,432.1 392.7,470.9 392.7,422.3 325.4,383.5" fill="#4FA044" /><polygon points="460.0,432.1 392.7,470.9 392.7,422.3 460.0,383.5" fill="#418338" /><polygon points="392.7,344.6 460.0,383.5 392.7,422.3 325.4,383.5" fill="#5DB24B" /><polygon points="346.4,383.5 392.7,410.2 392.7,376.2 346.4,349.4" fill="#5DB24B" /><polygon points="439.0,383.5 392.7,410.2 392.7,376.2 439.0,349.4" fill="#4C923D" /><polygon points="392.7,322.7 439.0,349.4 392.7,376.2 346.4,349.4" fill="#72C257" /><polygon points="561.1,443.4 603.1,467.7 603.1,419.1 561.1,394.8" fill="#E6B43E" /><polygon points="645.2,443.4 603.1,467.7 603.1,419.1 645.2,394.8" fill="#C29834" /><polygon points="603.1,370.5 645.2,394.8 603.1,419.1 561.1,394.8" fill="#FFC845" /><path d="M582.1 418.6 Q585.6 427.7 594.7 431.2 Q585.6 434.8 582.1 443.9 Q578.6 434.8 569.5 431.2 Q578.6 427.7 582.1 418.6Z" fill="#FFFFFF"/><path d="M624.2 420.6 Q627.2 428.3 634.9 431.2 Q627.2 434.2 624.2 441.9 Q621.2 434.2 613.5 431.2 Q621.2 428.3 624.2 420.6Z" fill="#FFF4D6"/><circle cx="566.1" cy="440.5" r="2.3" fill="#FFFFFF" fill-opacity="0.85"/><circle cx="598.1" cy="459.0" r="2.3" fill="#FFFFFF" fill-opacity="0.85"/><circle cx="566.1" cy="403.5" r="2.3" fill="#FFFFFF" fill-opacity="0.85"/><circle cx="598.1" cy="422.0" r="2.3" fill="#FFFFFF" fill-opacity="0.85"/><polygon points="621.9,478.5 663.9,502.8 663.9,454.2 621.9,429.9" fill="#52A6A2" /><polygon points="706.0,478.5 663.9,502.8 663.9,454.2 706.0,429.9" fill="#458C89" /><polygon points="663.9,405.6 706.0,429.9 663.9,454.2 621.9,429.9" fill="#5BB8B4" /><path d="M642.9 453.7 Q646.4 462.8 655.5 466.4 Q646.4 469.9 642.9 479.0 Q639.4 469.9 630.3 466.4 Q639.4 462.8 642.9 453.7Z" fill="#FFFFFF"/><path d="M685.0 455.7 Q688.0 463.4 695.7 466.4 Q688.0 469.3 685.0 477.0 Q682.0 469.3 674.3 466.4 Q682.0 463.4 685.0 455.7Z" fill="#FFF4D6"/><circle cx="626.9" cy="475.6" r="2.3" fill="#FFFFFF" fill-opacity="0.85"/><circle cx="658.9" cy="494.1" r="2.3" fill="#FFFFFF" fill-opacity="0.85"/><circle cx="626.9" cy="438.6" r="2.3" fill="#FFFFFF" fill-opacity="0.85"/><circle cx="658.9" cy="457.1" r="2.3" fill="#FFFFFF" fill-opacity="0.85"/><ellipse cx="813.6" cy="830.8" rx="44" ry="16" fill="#000000" fill-opacity="0.14"/><path d="M773.6 774.8 Q769.6 828.8 813.6 830.8 Q857.6 828.8 853.6 774.8 Z" fill="url(#g3)"/><ellipse cx="813.6" cy="774.8" rx="42" ry="14" fill="#2B2740"/><ellipse cx="813.6" cy="774.8" rx="34" ry="10" fill="#8BE36A"/><circle cx="801.6" cy="760.8" r="7" fill="#B9F59A"/><circle cx="821.6" cy="752.8" r="5" fill="#B9F59A"/><circle cx="829.6" cy="766.8" r="4" fill="#B9F59A"/><circle cx="811.6" cy="738.8" r="4" fill="#B9F59A"/><polygon points="785.5,1145.4 907.1,1215.6 907.1,945.6 785.5,875.4" fill="#E6B43E" /><polygon points="1028.7,1145.4 907.1,1215.6 907.1,945.6 1028.7,875.4" fill="#C29834" /><polygon points="907.1,805.2 1028.7,875.4 907.1,945.6 785.5,875.4" fill="#FFC845" /><circle cx="795.3" cy="886.4" r="6" fill="#FFFFFF" fill-opacity="0.9"/><circle cx="897.4" cy="945.4" r="6" fill="#FFFFFF" fill-opacity="0.9"/><circle cx="795.3" cy="1107.8" r="6" fill="#FFFFFF" fill-opacity="0.9"/><circle cx="897.4" cy="1166.8" r="6" fill="#FFFFFF" fill-opacity="0.9"/><path d="M907.1 852.9 Q913.3 868.7 929.1 874.9 Q913.3 881.0 907.1 896.9 Q901.0 881.0 885.1 874.9 Q901.0 868.7 907.1 852.9Z" fill="#FFFFFF"/></svg>